<svg class="graphic__machine slot-machine" xmlns="http://www.w3.org/2000/svg" viewBox="0 0 150.36 214.76">
  <defs>
    <rect id="slot-machine__slot" width="27.39" height="51.5" y="41.85" fill="#fff"/>
  </defs>
  <g class="slot-machine__handle">
    <circle cx="144.15" cy="38.7" r="6.21" fill="#d96e66"/>
    <path fill="#cdd5d8" d="M145 79.46l-.36-34.58a5 5 0 0 1-.55 0 5.7 5.7 0 0 1-.76-.05l-.48 34-7.4-1.8-.38 24.17 13.14-4.26V80.3z"/>
  </g>
  <g class="slot-machine__base">
    <path fill="#cdd5d8" d="M74.7 0c24.5 0 42.62 6.63 52.23 11.22a14.67 14.67 0 0 1 8.3 12.3l.64 9.92H13.54l.64-9.92a14.67 14.67 0 0 1 8.3-12.3C32.1 6.62 50.24 0 74.7 0z"/>
    <rect width="122.33" height="68.47" x="13.54" y="33.44" fill="#7a6863"/>
    <polygon fill="#9f8176" points="149.4 118.27 0 118.16 13.54 101.76 135.87 101.76 149.4 118.27"/>
    <rect width="149.4" height="96.48" y="118.16" fill="#7a6863"/>
    <path fill="#fff" d="M74.94 5.92a105 105 0 0 1 39.42 7.25c3.62 1.48 3.9 4.52 4.17 7.94v.4c.25 3.25-.23 6-3.5 6H34.8c-3.26 0-3.74-2.8-3.5-6v-.4c.27-3.4.56-6.44 4.18-7.92a105 105 0 0 1 39.46-7.25z"/>
  </g>
  <g class="slot-machine__slots">
    <use x="61" xlink:href="#slot-machine__slot" />
    <use x="27.61" xlink:href="#slot-machine__slot" />
    <use x="94.4" xlink:href="#slot-machine__slot" />
  </g>
  <g class="slot-machine__hole">
    <rect width="66.54" height="70.22" x="41.66" y="136.76" fill="#3d3432"/>
    <rect width="66.54" height="4.37" x="41.66" y="202.61" fill="#9f8176"/>
  </g>
  <g class="slot-machine__flow">
    <rect width="10.29" height="46.97" x="69.55" y="155.64" fill="#c6a19d" opacity=".5"/>
    <rect width="12.04" height="94.46" x="2688.45" y="269.64" fill="#c6a19d" transform="rotate(-90 1330.46 1572.63)" opacity=".2"/>
    <circle cx="79.56" cy="158.76" r="1.91" fill="#fff"/>
    <circle cx="76.35" cy="183.33" r="1.4" fill="#fff"/>
    <circle cx="78.34" cy="178.03" r=".7" fill="#fff"/>
    <circle cx="69.26" cy="196.76" r="1.4" fill="#fff"/>
    <path fill="#fff" d="M71.65 168.35a2.32 2.32 0 0 0-.68.1v-.1a1.7 1.7 0 1 0-1.7 1.7h.12a2.3 2.3 0 0 0-.13.67 2.34 2.34 0 1 0 2.37-2.37z"/>
  </g>
  <path class="slot-machine__shadow" d="M74.24 214.76V0h.17C49.94 0 31.97 6.63 22.36 11.22a14.75 14.75 0 0 0-8.38 12.3l-.72 9.92v68.32L0 117.76h.24v97h74z" opacity=".1"/>
</svg>